<svg xmlns="http://www.w3.org/2000/svg" viewBox="0 0 100 125" x="0px" y="0px"><title>xd</title><g><path d="M43.64,54.4a.92.92,0,0,1,0-.88l4.5-8.63a.94.94,0,0,0-.83-1.37H44.41a1,1,0,0,0-.87.57l-1.43,3.39c-.22.5-.44,1-.66,1.57s-.46,1.15-.69,1.82h-.13c-.31-.67-.57-1.28-.81-1.82s-.47-1.07-.71-1.57l-1.58-3.42a1,1,0,0,0-.85-.54H33.56a.94.94,0,0,0-.83,1.38l4.5,8.39a.94.94,0,0,1,0,.89l-4.85,9a1,1,0,0,0,.83,1.39h2.92A1,1,0,0,0,37,64l1.71-3.74c.24-.56.48-1.11.71-1.66s.47-1.14.71-1.78h.13c.3.64.57,1.24.82,1.78l.76,1.66L43.66,64a.93.93,0,0,0,.84.53h3.11a.94.94,0,0,0,.82-1.39Z"/><path d="M64.34,46A8.78,8.78,0,0,0,61,44.13a14.65,14.65,0,0,0-4.35-.61h-5a.94.94,0,0,0-.94.94V63.59a.94.94,0,0,0,.94.94h5.25a12.9,12.9,0,0,0,4.2-.65,8.58,8.58,0,0,0,3.24-2,8.69,8.69,0,0,0,2.09-3.3,13.36,13.36,0,0,0,.75-4.7,13.07,13.07,0,0,0-.75-4.67A8.28,8.28,0,0,0,64.34,46Zm-2.43,11.1A5.47,5.47,0,0,1,60.7,59.2a4.65,4.65,0,0,1-1.87,1.14,7.84,7.84,0,0,1-2.45.35h-.9V47.36h.9a8.5,8.5,0,0,1,2.45.32,4.33,4.33,0,0,1,1.87,1.08,5.11,5.11,0,0,1,1.21,2,9.8,9.8,0,0,1,.43,3.14A10.08,10.08,0,0,1,61.91,57.12Z"/><path d="M87,25.34,70.92,7.75A8.44,8.44,0,0,0,64.69,5H19.23a8.45,8.45,0,0,0-8.44,8.44V86.56A8.45,8.45,0,0,0,19.23,95H80.77a8.45,8.45,0,0,0,8.44-8.44V31A8.4,8.4,0,0,0,87,25.34Zm-5.33,2.51H71.31A2.82,2.82,0,0,1,68.5,25V13.44Zm-.9,61.53H19.23a2.82,2.82,0,0,1-2.82-2.82V13.44a2.82,2.82,0,0,1,2.82-2.82H62.87V25a8.45,8.45,0,0,0,8.44,8.44H83.59V86.56A2.83,2.83,0,0,1,80.77,89.38Z"/></g><text x="0" y="115" fill="#000000" font-size="5px" font-weight="bold" font-family="'Helvetica Neue', Helvetica, Arial-Unicode, Arial, Sans-serif">Created by Kyle Miller</text><text x="0" y="120" fill="#000000" font-size="5px" font-weight="bold" font-family="'Helvetica Neue', Helvetica, Arial-Unicode, Arial, Sans-serif">from the Noun Project</text></svg>