<svg xmlns="http://www.w3.org/2000/svg" xmlns:xlink="http://www.w3.org/1999/xlink" viewBox="0 0 24 30" version="1.1" x="0px" y="0px"><title>40 - Adobe Illustrator (Outline)</title><desc>Created with Sketch.</desc><g stroke="none" stroke-width="1" fill="none" fill-rule="evenodd"><g fill="#000000"><path d="M11.1369,12.4231 L9.6649,7.6171 L8.2429,12.4231 L11.1369,12.4231 Z M13.9799,17.5001 L12.6089,17.5001 L11.4419,13.6751 L7.9219,13.6751 L6.8049,17.5001 L5.4849,17.5001 L8.9709,5.6541 L10.3759,5.6541 L13.9799,17.5001 Z"/><path d="M15.536,17.5 L16.755,17.5 L16.755,9.022 L15.536,9.022 L15.536,17.5 Z M16.857,6.179 C16.857,6.37 16.789,6.534 16.654,6.669 C16.518,6.805 16.358,6.872 16.171,6.872 C15.985,6.872 15.822,6.802 15.681,6.661 C15.539,6.52 15.469,6.359 15.469,6.179 C15.469,5.998 15.539,5.837 15.681,5.696 C15.822,5.555 15.985,5.484 16.171,5.484 C16.358,5.484 16.518,5.552 16.654,5.688 C16.789,5.823 16.857,5.987 16.857,6.179 L16.857,6.179 Z"/><path d="M19.6175,22 L4.3825,22 C3.06667589,22 2.0005,20.9336063 2.0005,19.617 L2.0005,4.383 C2.0005,3.06639365 3.06667589,2 4.3825,2 L19.6175,2 C20.9336064,2 22.0005,3.06667581 22.0005,4.383 L22.0005,19.617 C22.0005,20.9333242 20.9336064,22 19.6175,22 Z M19.6175,24 C22.0380845,24 24.0005,22.0379851 24.0005,19.617 L24.0005,4.383 C24.0005,1.96201488 22.0380845,0 19.6175,0 L4.3825,0 C1.96201494,0 0.0005,1.96191558 0.0005,4.383 L0.0005,19.617 C0.0005,22.0380844 1.96201494,24 4.3825,24 L19.6175,24 Z"/></g></g><text x="0" y="39" fill="#000000" font-size="5px" font-weight="bold" font-family="'Helvetica Neue', Helvetica, Arial-Unicode, Arial, Sans-serif">Created by Ben Davis</text><text x="0" y="44" fill="#000000" font-size="5px" font-weight="bold" font-family="'Helvetica Neue', Helvetica, Arial-Unicode, Arial, Sans-serif">from the Noun Project</text></svg>