<svg xmlns="http://www.w3.org/2000/svg" data-name="Layer 1" viewBox="0 0 97.88 125" x="0px" y="0px"><title>Ai_icons</title><path d="M562.08,558.83h3.45l0.83,4H570l-3.73-17.35h-4.47l-4.16,17.35h3.62Zm1.08-6.23c0.2-1,.48-2.81.68-4h0.09c0.17,1.16.43,2.88,0.63,3.94l0.63,3.63h-2.73Z" transform="translate(-531.78 -536.96)"/><rect x="40.29" y="8.48" width="3.73" height="17.35"/><path d="M608.9,537H554.24v4.45H531.78v25.42h22.46V637h75.42V557.72Zm-16.1,83.44-3-10.8H579.07l-2.9,10.8h-6.34s9.87-34.86,10.18-36a5.48,5.48,0,0,0,.06-2.14h8.38l10.93,38.11h-6.59Zm8.48-55.27h-67.8v-22h67.8v22Zm7.94,55.27h-6.14V592.06h6.14V620.4Zm-3.07-32.1a3.39,3.39,0,1,1,3.39-3.39A3.39,3.39,0,0,1,606.15,588.3Zm2.75-30.58V539.35l18.37,18.37H608.9Z" transform="translate(-531.78 -536.96)"/><path d="M584.36,587.84h-0.1c-0.5,2.21-1,4.86-1.6,7.12l-2.6,9.39h8.64L586.06,595C585.41,592.64,584.86,590,584.36,587.84Z" transform="translate(-531.78 -536.96)"/><text x="0" y="115" fill="#000000" font-size="5px" font-weight="bold" font-family="'Helvetica Neue', Helvetica, Arial-Unicode, Arial, Sans-serif">Created by Valentin Marcenco</text><text x="0" y="120" fill="#000000" font-size="5px" font-weight="bold" font-family="'Helvetica Neue', Helvetica, Arial-Unicode, Arial, Sans-serif">from the Noun Project</text></svg>